<svg width="48" height="48" viewBox="0 0 48 48" fill="none" xmlns="http://www.w3.org/2000/svg">
<rect width="48" height="48" rx="24" fill="#0052D0" fill-opacity="0.1"/>
<path d="M24 33C21.7 33 19.6958 32.2375 17.9875 30.7125C16.2792 29.1875 15.3 27.2833 15.05 25H17.1C17.3333 26.7333 18.1042 28.1667 19.4125 29.3C20.7208 30.4333 22.25 31 24 31C25.95 31 27.6042 30.3208 28.9625 28.9625C30.3208 27.6042 31 25.95 31 24C31 22.05 30.3208 20.3958 28.9625 19.0375C27.6042 17.6792 25.95 17 24 17C22.85 17 21.775 17.2667 20.775 17.8C19.775 18.3333 18.9333 19.0667 18.25 20H21V22H15V16H17V18.35C17.85 17.2833 18.8875 16.4583 20.1125 15.875C21.3375 15.2917 22.6333 15 24 15C25.25 15 26.4208 15.2375 27.5125 15.7125C28.6042 16.1875 29.5542 16.8292 30.3625 17.6375C31.1708 18.4458 31.8125 19.3958 32.2875 20.4875C32.7625 21.5792 33 22.75 33 24C33 25.25 32.7625 26.4208 32.2875 27.5125C31.8125 28.6042 31.1708 29.5542 30.3625 30.3625C29.5542 31.1708 28.6042 31.8125 27.5125 32.2875C26.4208 32.7625 25.25 33 24 33V33M26.8 28.2L23 24.4V19H25V23.6L28.2 26.8L26.8 28.2V28.2" fill="#0052D0"/>
</svg>
