<svg width="68" height="68" viewBox="0 0 68 68" fill="none" xmlns="http://www.w3.org/2000/svg">
<g filter="url(#filter0_d_2017_687)">
<rect x="2" y="1" width="64" height="64" rx="32" fill="white" shape-rendering="crispEdges"/>
<path d="M28 45H40V40.5C40 38.85 39.4125 37.4375 38.2375 36.2625C37.0625 35.0875 35.65 34.5 34 34.5C32.35 34.5 30.9375 35.0875 29.7625 36.2625C28.5875 37.4375 28 38.85 28 40.5V45V45M34 31.5C35.65 31.5 37.0625 30.9125 38.2375 29.7375C39.4125 28.5625 40 27.15 40 25.5V21H28V25.5C28 27.15 28.5875 28.5625 29.7625 29.7375C30.9375 30.9125 32.35 31.5 34 31.5V31.5M22 48V45H25V40.5C25 38.975 25.3562 37.5437 26.0687 36.2062C26.7812 34.8687 27.775 33.8 29.05 33C27.775 32.2 26.7812 31.1312 26.0687 29.7937C25.3562 28.4562 25 27.025 25 25.5V21H22V18H46V21H43V25.5C43 27.025 42.6437 28.4562 41.9312 29.7937C41.2187 31.1312 40.225 32.2 38.95 33C40.225 33.8 41.2187 34.8687 41.9312 36.2062C42.6437 37.5437 43 38.975 43 40.5V45H46V48H22V48" fill="#0052D0"/>
</g>
<defs>
<filter id="filter0_d_2017_687" x="0" y="0" width="68" height="68" filterUnits="userSpaceOnUse" color-interpolation-filters="sRGB">
<feFlood flood-opacity="0" result="BackgroundImageFix"/>
<feColorMatrix in="SourceAlpha" type="matrix" values="0 0 0 0 0 0 0 0 0 0 0 0 0 0 0 0 0 0 127 0" result="hardAlpha"/>
<feOffset dy="1"/>
<feGaussianBlur stdDeviation="1"/>
<feComposite in2="hardAlpha" operator="out"/>
<feColorMatrix type="matrix" values="0 0 0 0 0 0 0 0 0 0 0 0 0 0 0 0 0 0 0.05 0"/>
<feBlend mode="normal" in2="BackgroundImageFix" result="effect1_dropShadow_2017_687"/>
<feBlend mode="normal" in="SourceGraphic" in2="effect1_dropShadow_2017_687" result="shape"/>
</filter>
</defs>
</svg>
