<svg width="104" height="93" viewBox="0 0 104 93" fill="none" xmlns="http://www.w3.org/2000/svg">
<rect x="20" width="64" height="53" rx="26.5" fill="url(#paint0_linear_2008_269)"/>
<g filter="url(#filter0_dd_2008_269)">
<rect x="20" width="64" height="53" rx="26.5" fill="white" fill-opacity="0.01" shape-rendering="crispEdges"/>
</g>
<path d="M47 36.5H57V32.75C57 31.375 56.5104 30.1979 55.5312 29.2188C54.5521 28.2396 53.375 27.75 52 27.75C50.625 27.75 49.4479 28.2396 48.4688 29.2188C47.4896 30.1979 47 31.375 47 32.75V36.5V36.5M52 25.25C53.375 25.25 54.5521 24.7604 55.5312 23.7812C56.5104 22.8021 57 21.625 57 20.25V16.5H47V20.25C47 21.625 47.4896 22.8021 48.4688 23.7812C49.4479 24.7604 50.625 25.25 52 25.25V25.25M42 39V36.5H44.5V32.75C44.5 31.4792 44.7969 30.2865 45.3906 29.1719C45.9844 28.0573 46.8125 27.1667 47.875 26.5C46.8125 25.8333 45.9844 24.9427 45.3906 23.8281C44.7969 22.7135 44.5 21.5208 44.5 20.25V16.5H42V14H62V16.5H59.5V20.25C59.5 21.5208 59.2031 22.7135 58.6094 23.8281C58.0156 24.9427 57.1875 25.8333 56.125 26.5C57.1875 27.1667 58.0156 28.0573 58.6094 29.1719C59.2031 30.2865 59.5 31.4792 59.5 32.75V36.5H62V39H42V39" fill="#F6F6F9"/>
<defs>
<filter id="filter0_dd_2008_269" x="0" y="0" width="104" height="93" filterUnits="userSpaceOnUse" color-interpolation-filters="sRGB">
<feFlood flood-opacity="0" result="BackgroundImageFix"/>
<feColorMatrix in="SourceAlpha" type="matrix" values="0 0 0 0 0 0 0 0 0 0 0 0 0 0 0 0 0 0 127 0" result="hardAlpha"/>
<feMorphology radius="6" operator="erode" in="SourceAlpha" result="effect1_dropShadow_2008_269"/>
<feOffset dy="8"/>
<feGaussianBlur stdDeviation="5"/>
<feComposite in2="hardAlpha" operator="out"/>
<feColorMatrix type="matrix" values="0 0 0 0 0 0 0 0 0 0.321569 0 0 0 0 0.815686 0 0 0 0.2 0"/>
<feBlend mode="normal" in2="BackgroundImageFix" result="effect1_dropShadow_2008_269"/>
<feColorMatrix in="SourceAlpha" type="matrix" values="0 0 0 0 0 0 0 0 0 0 0 0 0 0 0 0 0 0 127 0" result="hardAlpha"/>
<feMorphology radius="5" operator="erode" in="SourceAlpha" result="effect2_dropShadow_2008_269"/>
<feOffset dy="20"/>
<feGaussianBlur stdDeviation="12.5"/>
<feComposite in2="hardAlpha" operator="out"/>
<feColorMatrix type="matrix" values="0 0 0 0 0 0 0 0 0 0.321569 0 0 0 0 0.815686 0 0 0 0.2 0"/>
<feBlend mode="normal" in2="effect1_dropShadow_2008_269" result="effect2_dropShadow_2008_269"/>
<feBlend mode="normal" in="SourceGraphic" in2="effect2_dropShadow_2008_269" result="shape"/>
</filter>
<linearGradient id="paint0_linear_2008_269" x1="20" y1="0" x2="72.0713" y2="62.8785" gradientUnits="userSpaceOnUse">
<stop stop-color="#0052D0"/>
<stop offset="1" stop-color="#799DFF"/>
</linearGradient>
</defs>
</svg>
