<svg width="48" height="48" viewBox="0 0 48 48" fill="none" xmlns="http://www.w3.org/2000/svg">
<rect width="48" height="48" rx="24" fill="#FF8A65" fill-opacity="0.1"/>
<path d="M19.5 34V24.85C18.65 24.6167 17.9375 24.15 17.3625 23.45C16.7875 22.75 16.5 21.9333 16.5 21V14H18.5V21H19.5V14H21.5V21H22.5V14H24.5V21C24.5 21.9333 24.2125 22.75 23.6375 23.45C23.0625 24.15 22.35 24.6167 21.5 24.85V34H19.5V34M29.5 34V26H26.5V19C26.5 17.6167 26.9875 16.4375 27.9625 15.4625C28.9375 14.4875 30.1167 14 31.5 14V34H29.5V34" fill="#FF8A65"/>
</svg>
