<svg width="48" height="48" viewBox="0 0 48 48" fill="none" xmlns="http://www.w3.org/2000/svg">
<rect width="48" height="48" rx="24" fill="#00685A" fill-opacity="0.1"/>
<path d="M31 33L24 26L21.65 28.35C21.7833 28.6 21.875 28.8667 21.925 29.15C21.975 29.4333 22 29.7167 22 30C22 31.1 21.6083 32.0417 20.825 32.825C20.0417 33.6083 19.1 34 18 34C16.9 34 15.9583 33.6083 15.175 32.825C14.3917 32.0417 14 31.1 14 30C14 28.9 14.3917 27.9583 15.175 27.175C15.9583 26.3917 16.9 26 18 26C18.2833 26 18.5667 26.025 18.85 26.075C19.1333 26.125 19.4 26.2167 19.65 26.35L22 24L19.65 21.65C19.4 21.7833 19.1333 21.875 18.85 21.925C18.5667 21.975 18.2833 22 18 22C16.9 22 15.9583 21.6083 15.175 20.825C14.3917 20.0417 14 19.1 14 18C14 16.9 14.3917 15.9583 15.175 15.175C15.9583 14.3917 16.9 14 18 14C19.1 14 20.0417 14.3917 20.825 15.175C21.6083 15.9583 22 16.9 22 18C22 18.2833 21.975 18.5667 21.925 18.85C21.875 19.1333 21.7833 19.4 21.65 19.65L34 32V33H31V33M27 23L25 21L31 15H34V16L27 23V23M18 20C18.55 20 19.0208 19.8042 19.4125 19.4125C19.8042 19.0208 20 18.55 20 18C20 17.45 19.8042 16.9792 19.4125 16.5875C19.0208 16.1958 18.55 16 18 16C17.45 16 16.9792 16.1958 16.5875 16.5875C16.1958 16.9792 16 17.45 16 18C16 18.55 16.1958 19.0208 16.5875 19.4125C16.9792 19.8042 17.45 20 18 20V20M24 24.5C24.1333 24.5 24.25 24.45 24.35 24.35C24.45 24.25 24.5 24.1333 24.5 24C24.5 23.8667 24.45 23.75 24.35 23.65C24.25 23.55 24.1333 23.5 24 23.5C23.8667 23.5 23.75 23.55 23.65 23.65C23.55 23.75 23.5 23.8667 23.5 24C23.5 24.1333 23.55 24.25 23.65 24.35C23.75 24.45 23.8667 24.5 24 24.5V24.5M18 32C18.55 32 19.0208 31.8042 19.4125 31.4125C19.8042 31.0208 20 30.55 20 30C20 29.45 19.8042 28.9792 19.4125 28.5875C19.0208 28.1958 18.55 28 18 28C17.45 28 16.9792 28.1958 16.5875 28.5875C16.1958 28.9792 16 29.45 16 30C16 30.55 16.1958 31.0208 16.5875 31.4125C16.9792 31.8042 17.45 32 18 32V32" fill="#00685A"/>
</svg>
