<svg width="48" height="48" viewBox="0 0 48 48" fill="none" xmlns="http://www.w3.org/2000/svg">
<rect width="48" height="48" rx="24" fill="#DBDDE0"/>
<path d="M21.2502 34L20.8502 30.8C20.6335 30.7167 20.4294 30.6167 20.2377 30.5C20.046 30.3833 19.8585 30.2583 19.6752 30.125L16.7002 31.375L13.9502 26.625L16.5252 24.675C16.5085 24.5583 16.5002 24.4458 16.5002 24.3375C16.5002 24.2292 16.5002 24.1167 16.5002 24C16.5002 23.8833 16.5002 23.7708 16.5002 23.6625C16.5002 23.5542 16.5085 23.4417 16.5252 23.325L13.9502 21.375L16.7002 16.625L19.6752 17.875C19.8585 17.7417 20.0502 17.6167 20.2502 17.5C20.4502 17.3833 20.6502 17.2833 20.8502 17.2L21.2502 14H26.7502L27.1502 17.2C27.3669 17.2833 27.571 17.3833 27.7627 17.5C27.9544 17.6167 28.1419 17.7417 28.3252 17.875L31.3002 16.625L34.0502 21.375L31.4752 23.325C31.4919 23.4417 31.5002 23.5542 31.5002 23.6625C31.5002 23.7708 31.5002 23.8833 31.5002 24C31.5002 24.1167 31.5002 24.2292 31.5002 24.3375C31.5002 24.4458 31.4835 24.5583 31.4502 24.675L34.0252 26.625L31.2752 31.375L28.3252 30.125C28.1419 30.2583 27.9502 30.3833 27.7502 30.5C27.5502 30.6167 27.3502 30.7167 27.1502 30.8L26.7502 34H21.2502V34M23.0002 32H24.9752L25.3252 29.35C25.8419 29.2167 26.321 29.0208 26.7627 28.7625C27.2044 28.5042 27.6085 28.1917 27.9752 27.825L30.4502 28.85L31.4252 27.15L29.2752 25.525C29.3585 25.2917 29.4169 25.0458 29.4502 24.7875C29.4835 24.5292 29.5002 24.2667 29.5002 24C29.5002 23.7333 29.4835 23.4708 29.4502 23.2125C29.4169 22.9542 29.3585 22.7083 29.2752 22.475L31.4252 20.85L30.4502 19.15L27.9752 20.2C27.6085 19.8167 27.2044 19.4958 26.7627 19.2375C26.321 18.9792 25.8419 18.7833 25.3252 18.65L25.0002 16H23.0252L22.6752 18.65C22.1585 18.7833 21.6794 18.9792 21.2377 19.2375C20.796 19.4958 20.3919 19.8083 20.0252 20.175L17.5502 19.15L16.5752 20.85L18.7252 22.45C18.6419 22.7 18.5835 22.95 18.5502 23.2C18.5169 23.45 18.5002 23.7167 18.5002 24C18.5002 24.2667 18.5169 24.525 18.5502 24.775C18.5835 25.025 18.6419 25.275 18.7252 25.525L16.5752 27.15L17.5502 28.85L20.0252 27.8C20.3919 28.1833 20.796 28.5042 21.2377 28.7625C21.6794 29.0208 22.1585 29.2167 22.6752 29.35L23.0002 32V32M24.0502 27.5C25.0169 27.5 25.8419 27.1583 26.5252 26.475C27.2085 25.7917 27.5502 24.9667 27.5502 24C27.5502 23.0333 27.2085 22.2083 26.5252 21.525C25.8419 20.8417 25.0169 20.5 24.0502 20.5C23.0669 20.5 22.2377 20.8417 21.5627 21.525C20.8877 22.2083 20.5502 23.0333 20.5502 24C20.5502 24.9667 20.8877 25.7917 21.5627 26.475C22.2377 27.1583 23.0669 27.5 24.0502 27.5V27.5M24.0002 24V24V24V24V24V24V24V24V24V24V24V24V24V24V24V24V24V24V24V24V24V24V24V24V24V24V24V24V24V24V24V24V24V24V24V24" fill="#5A5C5E"/>
</svg>
